<svg width="18" height="18" viewBox="0 0 18 18" fill="none" xmlns="http://www.w3.org/2000/svg">
<g clip-path="url(#clip0_396_172)">
<path fill-rule="evenodd" clip-rule="evenodd" d="M9.00001 0C6.55618 0 6.24891 0.0107185 5.28782 0.0535927C4.33029 0.0964669 3.67646 0.250099 3.10481 0.471616C2.51171 0.700278 2.01151 1.01112 1.51131 1.51131C1.01112 2.01151 0.703851 2.51528 0.471616 3.1048C0.250099 3.67646 0.0964669 4.33029 0.0535927 5.29139C0.0107185 6.24891 0 6.55617 0 9C0 11.4438 0.0107185 11.7511 0.0535927 12.7122C0.0964669 13.6697 0.250099 14.3235 0.471616 14.8988C0.700278 15.4919 1.01112 15.9921 1.51131 16.4923C2.01151 16.9925 2.51529 17.2997 3.10481 17.532C3.67646 17.7535 4.33029 17.9071 5.29139 17.95C6.25249 17.9929 6.55618 18.0036 9.00358 18.0036C11.451 18.0036 11.7547 17.9929 12.7158 17.95C13.6733 17.9071 14.3271 17.7535 14.9024 17.532C15.4954 17.3033 15.9956 16.9925 16.4958 16.4923C16.996 15.9921 17.3033 15.4883 17.5355 14.8988C17.7571 14.3271 17.9107 13.6733 17.9536 12.7122C17.9964 11.7511 18.0072 11.4474 18.0072 9C18.0072 6.5526 17.9964 6.24891 17.9536 5.28781C17.9107 4.33029 17.7571 3.67646 17.5355 3.10123C17.3069 2.50814 16.996 2.00794 16.4958 1.50774C15.9956 1.00754 15.4919 0.700278 14.9024 0.468043C14.3307 0.246526 13.6769 0.092894 12.7158 0.0500198C11.7511 0.0107185 11.4438 0 9.00001 0ZM9.00022 4.38037C6.4492 4.38037 4.37695 6.44905 4.37695 9.00363C4.37695 11.5582 6.44563 13.6269 9.00022 13.6269C11.5548 13.6269 13.6235 11.5582 13.6235 9.00363C13.6235 6.44905 11.5548 4.38037 9.00022 4.38037ZM9.00022 12.0012C7.34242 12.0012 5.99903 10.6579 5.99903 9.00006C5.99903 7.34226 7.34242 5.99887 9.00022 5.99887C10.658 5.99887 12.0014 7.34226 12.0014 9.00006C12.0014 10.6579 10.658 12.0012 9.00022 12.0012ZM14.8846 4.19448C14.8846 4.79039 14.4015 5.27348 13.8056 5.27348C13.2096 5.27348 12.7266 4.79039 12.7266 4.19448C12.7266 3.59856 13.2096 3.11548 13.8056 3.11548C14.4015 3.11548 14.8846 3.59856 14.8846 4.19448Z" fill="#5E626A"/>
</g>
<defs>
<clipPath id="clip0_396_172">
<rect width="18" height="18" fill="white"/>
</clipPath>
</defs>
</svg>
