<svg width="100" height="51" viewBox="0 0 100 51" fill="none" xmlns="http://www.w3.org/2000/svg">
<path d="M12.2433 27.6074L10.4087 29.9979H7.13494V36.796H4.30055V29.9979H0L1.83459 27.6074H12.2433Z" fill="#FFE500"/>
<path d="M26.5533 36.796H22.7594L20.7195 34.3651H16.3652V36.796H13.5308V32.0997H21.5005C22.3775 32.0997 23.0606 31.7013 23.0606 31.07C23.0606 30.3559 22.4715 29.9979 21.5005 29.9979H13.5308L15.3788 27.6074H21.2663C23.3485 27.6074 25.9776 28.2676 25.9776 30.889C25.9776 32.3172 25.0871 33.4989 23.5807 33.8011C23.8954 34.034 24.2389 34.3651 24.8683 35.0098L26.5533 36.796Z" fill="#FFE500"/>
<path d="M32.8097 36.7957L34.5214 34.4341H36.8223C37.3692 34.4341 38.014 34.4341 38.4516 34.461C38.2059 34.1319 37.8221 33.568 37.5208 33.1291L35.8781 30.6982L31.5776 36.7957H28.2231L34.0973 28.4867C34.4811 27.9517 35.0414 27.457 35.9318 27.457C36.78 27.457 37.3424 27.9093 37.7396 28.4867L43.464 36.7957H32.8097Z" fill="#FFE500"/>
<path d="M57.4016 36.796H53.1164L50.3511 34.3785C49.4069 33.5548 48.9674 33.1563 48.6527 32.8407C48.6661 33.2661 48.693 33.7203 48.693 34.1591V36.796H45.8452V27.6074H48.693V29.7361C48.693 30.3001 48.6662 30.8621 48.6374 31.3433C48.9944 31.0142 49.4856 30.5464 50.3223 29.8459L52.9648 27.6074H57.0734L53.5674 30.2443C52.3488 31.1643 51.7865 31.5762 51.1993 31.9342C51.7193 32.2922 52.4313 32.8003 53.6096 33.7607L57.4016 36.796Z" fill="#FFE500"/>
<path d="M70.1633 27.6074L68.3287 29.9979H65.0567V36.796H62.2223V29.9979H57.9219L59.7565 27.6074H70.1633Z" fill="#FFE500"/>
<path d="M84.199 32.1937C84.199 35.4753 81.9538 36.9458 77.5036 36.9458C73.0399 36.9458 70.8081 35.4753 70.8081 32.1937C70.8081 28.9121 73.0399 27.4551 77.5036 27.4551C81.9519 27.457 84.199 28.9121 84.199 32.1937ZM81.3781 32.1937C81.3781 30.2151 80.3514 29.8456 77.5036 29.8456C74.6558 29.8456 73.6291 30.217 73.6291 32.1937C73.6291 34.1704 74.6558 34.5553 77.5036 34.5553C80.3514 34.5553 81.3781 34.1723 81.3781 32.1937Z" fill="#FFE500"/>
<path d="M100 36.796H96.2062L94.1663 34.3651H89.8119V36.796H86.9775V32.0997H94.9473C95.8243 32.0997 96.5094 31.7013 96.5094 31.07C96.5094 30.3559 95.9202 29.9979 94.9473 29.9979H86.9775L88.8256 27.6074H94.7131C96.7952 27.6074 99.4243 28.2676 99.4243 30.889C99.4243 32.3172 98.5339 33.4989 97.0275 33.8011C97.3422 34.034 97.6857 34.3651 98.3151 35.0098L100 36.796Z" fill="#FFE500"/>
<path d="M23.6365 50.001H17.5015V44.2731H20.3493V47.6375H23.6365C25.212 47.6375 26.3481 46.7579 26.3481 45.4395C26.3481 44.148 25.1698 43.201 23.6365 43.201H17.5015L19.3092 40.8105H23.6365C26.8413 40.8105 29.1557 42.664 29.1557 45.3144C29.1557 47.982 26.8125 50.001 23.6365 50.001Z" fill="white"/>
<path d="M42.6004 47.6375L40.7793 49.9991H31.9614V40.8105H42.5736L40.7391 43.201H34.8093V44.3H42.067L40.4378 46.3883H34.8093V47.6375H42.6004Z" fill="white"/>
<path d="M56.3195 40.8125L54.485 43.203H51.2131V50.001H48.3787V43.203H44.0781L45.9127 40.8125H56.3195Z" fill="white"/>
<path d="M59.5376 50.0008L61.2494 47.6392H63.5503C64.0972 47.6392 64.742 47.6392 65.1795 47.6661C64.9339 47.337 64.55 46.773 64.2488 46.3342L62.6061 43.9033L58.3056 50.0008H54.9512L60.8253 41.6918C61.2091 41.1568 61.7694 40.6621 62.6599 40.6621C63.5081 40.6621 64.0703 41.1144 64.4675 41.6918L70.192 50.0008H59.5376Z" fill="white"/>
<path d="M82.5003 47.6375L80.6657 49.9991H72.5732V40.8105H75.4076V47.6356H82.5003V47.6375Z" fill="white"/>
<path d="M44.5808 21.2136H36.3079L32.1724 14.0287L36.3079 6.84375H44.5808L48.7162 14.0287L44.5808 21.2136ZM40.4452 18.6403C42.0879 18.6403 43.6058 17.7607 44.4272 16.3345C45.2485 14.9083 45.2485 13.1491 44.4272 11.7229C43.6058 10.2967 42.0879 9.41708 40.4452 9.41708C38.8025 9.41708 37.2846 10.2967 36.4633 11.7229C35.6419 13.1491 35.6419 14.9083 36.4633 16.3345C37.2846 17.7626 38.8025 18.6403 40.4452 18.6403Z" fill="#FFE500"/>
<path d="M54.2624 14.0292H51.2994L44.7057 2.57333H36.3081V0H46.1872L54.2624 14.0292Z" fill="white"/>
<path d="M53.6059 0H45.4443V2.57333H53.6059V0Z" fill="white"/>
<path d="M63.7323 12.4581H61.1665V9.41708H49.3838V6.84375H63.7323V12.4581Z" fill="white"/>
<path d="M65.1393 21.2136H59.7603L57.0698 16.5404L59.7603 11.8672H65.1393L67.8297 16.5404L65.1393 21.2136ZM62.4508 19.1195C63.37 19.1195 64.2181 18.6287 64.6767 17.8299C65.1354 17.0331 65.1354 16.0496 64.6767 15.2527C64.2181 14.4559 63.37 13.9632 62.4508 13.9632C61.5315 13.9632 60.6833 14.454 60.2247 15.2527C59.766 16.0496 59.766 17.0331 60.2247 17.8299C60.6833 18.6287 61.5315 19.1195 62.4508 19.1195Z" fill="#FFE500"/>
</svg>
